<?xml version="1.0" encoding="UTF-8" standalone="no"?>
<!-- Generator: Adobe Illustrator 14.0.0, SVG Export Plug-In . SVG Version: 6.00 Build 43363)  -->

<svg
   xmlns:dc="http://purl.org/dc/elements/1.1/"
   xmlns:cc="http://creativecommons.org/ns#"
   xmlns:rdf="http://www.w3.org/1999/02/22-rdf-syntax-ns#"
   xmlns:svg="http://www.w3.org/2000/svg"
   xmlns="http://www.w3.org/2000/svg"
   xmlns:sodipodi="http://sodipodi.sourceforge.net/DTD/sodipodi-0.dtd"
   xmlns:inkscape="http://www.inkscape.org/namespaces/inkscape"
   version="1.1"
   x="0px"
   y="0px"
   width="145.00002"
   height="45.000019"
   viewBox="0 0 145.00001 45.000019"
   enable-background="new 0 0 780 650"
   xml:space="preserve"
   id="svg2"
   inkscape:version="0.48.2 r9819"
   sodipodi:docname="android-native-final.svg"><metadata
   id="metadata1456"><rdf:RDF><cc:Work
       rdf:about=""><dc:format>image/svg+xml</dc:format><dc:type
         rdf:resource="http://purl.org/dc/dcmitype/StillImage" /></cc:Work></rdf:RDF></metadata><defs
   id="defs1454">
	

		
		
	
			
		
	

		
		
	
			
		</defs><sodipodi:namedview
   pagecolor="#ffffff"
   bordercolor="#666666"
   borderopacity="1"
   objecttolerance="10"
   gridtolerance="10"
   guidetolerance="10"
   inkscape:pageopacity="0"
   inkscape:pageshadow="2"
   inkscape:window-width="1280"
   inkscape:window-height="972"
   id="namedview1452"
   showgrid="false"
   fit-margin-top="0"
   fit-margin-left="0"
   fit-margin-right="0"
   fit-margin-bottom="0"
   inkscape:zoom="4.1077465"
   inkscape:cx="75.999033"
   inkscape:cy="24.515571"
   inkscape:window-x="-8"
   inkscape:window-y="-8"
   inkscape:window-maximized="1"
   inkscape:current-layer="svg2" />
























































































<g
   id="g4342"><circle
     transform="matrix(1.0000444,0,0,1.0000444,-187.57933,-236.80351)"
     cx="210.06799"
     cy="259.29199"
     r="9.9519997"
     id="circle1169"
     sodipodi:cx="210.06799"
     sodipodi:cy="259.29199"
     sodipodi:rx="9.9519997"
     sodipodi:ry="9.9519997"
     style="fill:#451c54"
     d="m 220.01999,259.29199 c 0,5.49634 -4.45566,9.952 -9.952,9.952 -5.49633,0 -9.952,-4.45566 -9.952,-9.952 0,-5.49634 4.45567,-9.952 9.952,-9.952 5.49634,0 9.952,4.45566 9.952,9.952 z" /><path
     style="fill:#451c54"
     inkscape:connector-curvature="0"
     id="path1171"
     d="M 44.134958,20.769926 H 39.720762 C 38.907726,12.592563 32.406437,6.091274 24.230074,5.279238 V 0.86504202 C 24.230074,0.38902088 23.839057,3.6092e-6 23.365036,3.6092e-6 h -1.730077 c -0.477021,0 -0.865039,0.3900173208 -0.865039,0.8650384108 V 5.279238 C 12.591557,6.0922741 6.0912686,12.592563 5.2802326,20.769926 H 0.86503656 c -0.47602114,0 -0.8650384076,0.389017 -0.8650384076,0.865038 v 1.730077 c 0,0.477021 0.3900173176,0.865038 0.8650384076,0.865038 H 5.2802326 c 0.812036,8.177363 7.3123244,14.678652 15.4896874,15.490688 v 4.414196 c 0,0.476021 0.389018,0.865039 0.865039,0.865039 h 1.730077 c 0.475021,0 0.865038,-0.390018 0.865038,-0.865039 v -4.414196 c 8.176363,-0.813036 14.678652,-7.313325 15.490688,-15.490688 h 4.414196 c 0.475021,0 0.865038,-0.389017 0.865038,-0.865038 v -1.730077 c 0,-0.477021 -0.390017,-0.865038 -0.865038,-0.865038 z M 22.498997,36.346617 c -7.635339,0 -13.8466147,-6.211275 -13.8466147,-13.846614 0,-7.635339 6.2112757,-13.8466152 13.8466147,-13.8466152 7.635339,0 13.846615,6.2112762 13.846615,13.8466152 0,7.635339 -6.211276,13.846614 -13.846615,13.846614 z" /></g>

































<path
   style="fill:#451c54"
   inkscape:connector-curvature="0"
   d="M 94.134969,20.769936 H 89.720773 C 88.907737,12.592573 82.406449,6.091284 74.230086,5.279248 V 0.86505202 c 0,-0.47602114 -0.391018,-0.8650384108 -0.865039,-0.8650384108 H 71.63497 c -0.477021,0 -0.865038,0.3900173208 -0.865038,0.8650384108 V 5.279248 C 62.591569,6.0922841 56.09128,12.592573 55.280244,20.769936 h -4.415196 c -0.476021,0 -0.865038,0.389017 -0.865038,0.865038 v 1.730077 c 0,0.477021 0.390017,0.865038 0.865038,0.865038 h 4.415196 c 0.812036,8.177363 7.312325,14.678652 15.489688,15.490688 v 4.414196 c 0,0.476021 0.389017,0.865039 0.865038,0.865039 h 1.730077 c 0.475021,0 0.865039,-0.390018 0.865039,-0.865039 v -4.414196 c 8.176363,-0.813036 14.678651,-7.313325 15.490687,-15.490688 h 4.414196 c 0.475021,0 0.865039,-0.389017 0.865039,-0.865038 v -1.730077 c 0,-0.477021 -0.390018,-0.865038 -0.865039,-0.865038 z m -21.63596,15.576691 c -7.635339,0 -13.846615,-6.211275 -13.846615,-13.846614 0,-7.635339 6.211276,-13.8466152 13.846615,-13.8466152 7.635339,0 13.846614,6.2112762 13.846614,13.8466152 0,7.635339 -6.211275,13.846614 -13.846614,13.846614 z"
   id="path1171-8" /><g
   id="g4331"><path
     id="circle4326"
     transform="translate(-2.5109999e-6,0)"
     d="M 122.59375 10.53125 C 122.14325 10.533177 121.70692 10.565422 121.25 10.625 C 111.54566 11.150723 106.83562 24.568343 114.125 31.03125 C 120.67876 38.168537 133.96176 33.310779 134.40625 23.65625 C 135.21236 16.771601 129.35121 10.502339 122.59375 10.53125 z M 122.5 12.5625 C 127.99658 12.5625 132.4375 17.003418 132.4375 22.5 C 132.4375 27.996582 127.99658 32.4375 122.5 32.4375 C 117.00342 32.4375 112.53125 27.996582 112.53125 22.5 C 112.53125 17.003418 117.00342 12.5625 122.5 12.5625 z "
     style="fill:#451c54;fill-opacity:1;stroke:none" /><path
     d="m 144.13496,20.769926 h -4.4142 C 138.90772,12.592563 132.40644,6.091274 124.23007,5.279238 V 0.86504202 c 0,-0.47602114 -0.39101,-0.8650384108 -0.86504,-0.8650384108 h -1.73007 c -0.47702,0 -0.86504,0.3900173208 -0.86504,0.8650384108 V 5.279238 c -8.17836,0.8130361 -14.67865,7.313325 -15.48969,15.490688 h -4.41519 c -0.47603,0 -0.865043,0.389017 -0.865043,0.865038 v 1.730077 c 0,0.477021 0.390013,0.865038 0.865043,0.865038 h 4.41519 c 0.81204,8.177363 7.31233,14.678652 15.48969,15.490688 v 4.414196 c 0,0.476021 0.38902,0.865039 0.86504,0.865039 h 1.73007 c 0.47503,0 0.86504,-0.390018 0.86504,-0.865039 v -4.414196 c 8.17637,-0.813036 14.67865,-7.313325 15.49069,-15.490688 h 4.4142 c 0.47502,0 0.86504,-0.389017 0.86504,-0.865038 v -1.730077 c 0,-0.477021 -0.39002,-0.865038 -0.86504,-0.865038 z M 122.499,36.346617 c -7.63534,0 -13.84662,-6.211275 -13.84662,-13.846614 0,-7.635339 6.21128,-13.8466152 13.84662,-13.8466152 7.63534,0 13.84661,6.2112762 13.84661,13.8466152 0,7.635339 -6.21127,13.846614 -13.84661,13.846614 z"
     id="path3068"
     inkscape:connector-curvature="0"
     style="fill:#451c54" /></g></svg>